<svg class="translate-y-d-3" height="20px" id="Слой_1" style="enable-background:new 0 0 512 512;" version="1.1" viewbox="0 0 512 512" width="20px" xml:space="preserve" xmlns="http://www.w3.org/2000/svg" xmlns:xlink="http://www.w3.org/1999/xlink">
<switch>
<g>
<path class="grey-icon" d="M221.909,335.546c0-18.866,15.226-34.092,34.091-34.092  s34.091,15.226,34.091,34.092c0,13.749-8.189,25.567-19.997,30.905l19.997,60.003h-68.182l19.997-60.003  C230.093,361.113,221.909,349.295,221.909,335.546z M437.818,233.273H74.182v250h363.637V233.273z M369.637,136.682  c0-59.659-48.296-107.955-107.955-107.955h-11.363c-59.659,0-107.955,48.296-107.955,107.955v73.864h227.273V136.682z M437.818,506  H74.182c-12.501,0-22.727-10.231-22.727-22.728v-250c0-12.496,10.226-22.728,22.727-22.728h45.455v-73.864  C119.636,64.527,178.158,6,250.318,6h11.363c72.155,0,130.682,58.527,130.682,130.682v73.864h45.455  c12.495,0,22.728,10.232,22.728,22.728v250C460.546,495.769,450.313,506,437.818,506z" style="fill-rule:evenodd;clip-rule:evenodd;fill:#b5b5b5;"></path>
</g>
</switch>
<foreignobject></foreignobject>
</svg>