<?xml version="1.0" encoding="UTF-8"?>
<svg id="Layer_1" xmlns="http://www.w3.org/2000/svg" viewBox="0 0 351.47 49.99">
  <defs>
    <style>
      .cls-1 {
        fill: #ec111a;
      }
    </style>
  </defs>
  <path class="cls-1" d="M85.41,15.22c-9.59,0-17.38,7.8-17.38,17.38s7.8,17.38,17.38,17.38,17.38-7.8,17.38-17.38-7.8-17.38-17.38-17.38ZM85.41,40.27c-4.23,0-7.66-3.44-7.66-7.66s3.44-7.66,7.66-7.66,7.66,3.44,7.66,7.66-3.44,7.66-7.66,7.66Z"/>
  <polygon class="cls-1" points="124.94 16.05 120.19 16.05 120.19 5.79 109.8 5.79 109.8 16.05 105.05 16.05 105.05 25.45 109.8 25.45 109.8 49.16 120.19 49.16 120.19 25.45 124.94 25.45 124.94 16.05"/>
  <rect class="cls-1" x="129.7" y="16.05" width="10.39" height="33.11"/>
  <path class="cls-1" d="M134.9,0c-3.19,0-5.79,2.6-5.79,5.79s2.6,5.79,5.79,5.79,5.79-2.6,5.79-5.79S138.09,0,134.9,0Z"/>
  <path class="cls-1" d="M283.92,24.97c3.41,0,6.19,2.78,6.19,6.19v18h10.39v-19.43c0-8.82-5.09-14.52-13.12-14.52-3.3,0-6.79,1.45-9.65,6.08v-5.25h-10.39v33.11h10.39v-18c0-3.41,2.78-6.19,6.19-6.19Z"/>
  <polygon class="cls-1" points="338.37 49.16 325.6 32.62 337.47 16.05 325.33 16.05 315.79 29.45 315.79 .83 305.4 .83 305.4 49.16 315.79 49.16 315.79 35.51 326.26 49.16 338.37 49.16"/>
  <path class="cls-1" d="M32.25,40.25c.75-1.8,1.07-3.63,1.07-6.1,0-3.34-1.05-6.33-2.95-8.41-2.22-2.43-6.01-4.45-11.27-6-1.15-.34-2.12-.7-2.95-1.11-.93-.45-1.61-1-2.2-1.64-.67-.73-.95-1.59-.95-2.68,0-1.54.82-2.58,2.16-3.42,1.68-1.06,4.91-1.16,8.21.06,1.15.43,2.18.9,3.35,1.59l4.42-8.79c-1.64-.98-3.98-2.26-6.33-2.86-2.39-.61-4.63-.89-7.06-.89s-4.65.37-6.59,1.09c-1.73.64-3.52,1.81-5.05,3.29-1.38,1.34-2.64,3.25-3.36,5.02-.74,1.81-1.11,3.87-1.11,6.12s1.11,6.15,3.91,8.78c3.03,2.84,6.46,3.84,7.84,4.38s2.9.98,3.87,1.37c1.03.41,2.18.95,2.84,1.45.71.53,1.19,1.01,1.52,1.69.31.66.39,1.25.32,2.11-.09,1.09-.59,2.02-1.48,2.86s-2.5,1.32-4.78,1.32c-1.91,0-3.86-.54-5.79-1.39-1.71-.75-2.89-1.42-4.71-2.49L0,44.62c3.62,3.22,9.5,5.36,14.73,5.36,2.67,0,5.45-.44,7.83-1.25,2.24-.76,4.46-2,5.93-3.32,1.58-1.41,3.02-3.4,3.76-5.17Z"/>
  <g>
    <path class="cls-1" d="M345.69,37.59c-3.2,0-5.79,2.59-5.79,5.79s2.59,5.79,5.79,5.79,5.79-2.59,5.79-5.79-2.59-5.79-5.79-5.79ZM345.69,48c-2.55,0-4.62-2.07-4.62-4.62s2.07-4.62,4.62-4.62,4.62,2.07,4.62,4.62-2.07,4.62-4.62,4.62Z"/>
    <path class="cls-1" d="M345.68,44.34h-.93v2.19h-1.14v-6.32h2.42c1.16,0,2.1.94,2.1,2.09,0,.79-.5,1.51-1.22,1.84l1.33,2.38h-1.37l-1.2-2.19ZM344.75,43.28h1.33c.49,0,.89-.43.89-.97s-.4-.96-.89-.96h-1.33v1.94Z"/>
  </g>
  <path class="cls-1" d="M60.7,37.41c-1.41,1.74-3.56,2.86-5.97,2.86-4.23,0-7.66-3.44-7.66-7.66s3.44-7.66,7.66-7.66c2.41,0,4.56,1.12,5.97,2.86l6.89-6.89c-3.18-3.5-7.77-5.69-12.85-5.69-9.59,0-17.93,6.82-17.93,17.38s8.35,17.38,17.93,17.38c5.09,0,9.67-2.2,12.85-5.69l-6.89-6.89Z"/>
  <path class="cls-1" d="M180.74,49.16V16.05h-10.13v3.48l-.94-.84c-2.54-2.27-5.38-3.47-8.72-3.47-8.94,0-16.49,7.96-16.49,17.38s7.55,17.38,16.49,17.38c3.35,0,6.18-1.2,8.72-3.47l.94-.84v3.48h10.13ZM162.56,40.43c-4.31,0-7.82-3.51-7.82-7.82s3.51-7.82,7.82-7.82,7.82,3.51,7.82,7.82-3.51,7.82-7.82,7.82Z"/>
  <path class="cls-1" d="M262.36,49.16V16.05h-10.13v3.48l-.94-.84c-2.54-2.27-5.38-3.47-8.72-3.47-8.94,0-16.49,7.96-16.49,17.38s7.55,17.38,16.49,17.38c3.35,0,6.18-1.2,8.72-3.47l.94-.84v3.48h10.13ZM244.18,40.43c-4.31,0-7.82-3.51-7.82-7.82s3.51-7.82,7.82-7.82,7.82,3.51,7.82,7.82-3.51,7.82-7.82,7.82Z"/>
  <path class="cls-1" d="M196.24,49.16v-3.48s.94.84.94.84c2.54,2.27,5.38,3.47,8.72,3.47,8.94,0,16.49-7.96,16.49-17.38s-7.55-17.38-16.49-17.38c-3.35,0-6.18,1.2-8.72,3.47l-.94.84V.83s-10.13,0-10.13,0v48.34s10.13,0,10.13,0ZM196.47,32.61c0-4.31,3.51-7.82,7.82-7.82s7.82,3.51,7.82,7.82c0,4.31-3.51,7.82-7.82,7.82-4.31,0-7.82-3.51-7.82-7.82Z"/>
</svg>