<svg width="400" height="88" viewBox="0 0 400 88" fill="none" xmlns="http://www.w3.org/2000/svg">
<g clip-path="url(#clip0_701_4018)">
<path d="M158.151 0H70V88H158.151V0Z" fill="#004070"/>
<path d="M121.15 19.0157H107.144V32.0072L114.151 38.9746L121.134 32.0072L121.15 19.0157Z" fill="#FDB812"/>
<path d="M107.152 68.9526H121.197V46.2115L114.159 39.1965L107.152 46.1956V68.9526Z" fill="#FDB812"/>
<path d="M97.8458 22.9631L87.9456 32.8712L97.0849 42.0263H107.017L107.009 32.1261L97.8458 22.9631Z" fill="#FDB812"/>
<path d="M84.0378 42.1928V56.1989L96.9818 56.2147L104.005 49.1919L96.9977 42.2007L84.0378 42.1928Z" fill="#FDB812"/>
<path d="M144.184 56.2147V42.2007L131.216 42.1928L124.225 49.2077L131.232 56.2068L144.184 56.2147Z" fill="#FDB812"/>
<path d="M140.324 32.8633L130.424 22.9551L121.261 32.1023V42.0263L131.161 42.0184L140.324 32.8633Z" fill="#FDB812"/>
<path d="M177.111 18.976V36.1845H183.452V39.1173H172.196V18.976H177.111Z" fill="#004070"/>
<path d="M195.421 19.0236L202.618 39.1648H197.617L196.031 34.2504H190.483L188.897 39.1648H185.513L192.52 19.0236H195.421ZM191.236 31.706H195.199L193.249 25.3648L191.236 31.706Z" fill="#004070"/>
<path d="M208.555 19.0236V29.9463C208.555 32.7206 208.611 33.9096 209.348 34.9479C209.64 35.383 210.035 35.7389 210.499 35.9838C210.962 36.2286 211.479 36.3548 212.003 36.3509C212.663 36.3574 213.309 36.1619 213.854 35.7907C214.4 35.4195 214.819 34.8903 215.055 34.2742C215.356 33.4815 215.515 32.6889 215.515 29.9146V19.0236H218.836V30.2158C218.836 31.7456 219.359 39.4343 211.084 39.4343C209.99 39.4343 206.328 39.3472 204.465 35.6851C203.823 34.401 203.672 33.0535 203.672 30.4298V19.0236H208.555Z" fill="#004070"/>
<path d="M227.951 19.0236C230.734 19.0236 231.915 19.1108 233.294 19.7528C234.082 20.1287 234.748 20.7209 235.212 21.4606C235.677 22.2002 235.921 23.0567 235.917 23.9301C235.947 25.1572 235.558 26.3578 234.815 27.3345C234.072 28.3112 233.018 29.0059 231.827 29.3043L237.717 39.1648H232.382L227.928 30.5567H227.072V39.1331H222.316V19.0236H227.951ZM227.072 21.7345V28.1787H227.864C229.021 28.1787 231.035 28.1787 231.035 24.7307C231.035 21.7345 229.354 21.7345 227.864 21.7345H227.072Z" fill="#004070"/>
<path d="M251.168 19.0236V21.9802H244.668V27.2909H250.677V30.1207H244.668V36.1607H251.263V39.1569H239.754V19.0236H251.168Z" fill="#004070"/>
<path d="M257.81 19.0236L266.53 31.3493V19.0236H269.859V39.1331H266.775L258.056 26.7995V39.1331H254.703V19.0236H257.81Z" fill="#004070"/>
<path d="M286.94 19.0236V21.9168H281.875V39.1331H276.961V21.8851H271.928V19.0236H286.94Z" fill="#004070"/>
<path d="M293.892 19.0236V39.1331H288.977V19.0236H293.892Z" fill="#004070"/>
<path d="M305.877 19.0236L313.074 39.1648H308.041L306.455 34.2504H300.907L299.322 39.1648H295.905L302.976 19.0236H305.877ZM301.692 31.706H305.655L303.697 25.3648L301.692 31.706Z" fill="#004070"/>
<path d="M318.202 19.0236L326.961 31.3493V19.0236H330.282V39.1331H327.207L318.488 26.7995V39.1331H315.127V19.0236H318.202Z" fill="#004070"/>
<path d="M179.029 48.8431C180.654 48.7476 182.279 49.0185 183.785 49.6357C184.489 49.9703 185.079 50.5052 185.481 51.1735C185.883 51.8419 186.079 52.6139 186.044 53.3929C186.044 55.9532 184.276 57.6336 181.898 58.2994C182.935 58.4565 183.93 58.8204 184.823 59.3695C185.451 59.782 185.961 60.35 186.304 61.0181C186.647 61.6862 186.812 62.4317 186.781 63.1821C186.799 64.2738 186.478 65.3441 185.864 66.2465C185.249 67.149 184.371 67.8395 183.349 68.2234C182.184 68.7703 180.812 69.016 177.729 69.016H172.252V48.8431H179.029ZM178.022 57.269C178.79 57.3387 179.562 57.1903 180.25 56.8409C180.979 56.4129 181.375 55.4934 181.375 54.1539C181.422 53.7406 181.363 53.3222 181.204 52.938C181.044 52.5539 180.79 52.2167 180.464 51.9582C179.751 51.6189 178.958 51.4818 178.173 51.5619H177.047V57.269H178.022ZM178.173 66.2101C179.034 66.2874 179.9 66.1284 180.678 65.7503C181.47 65.2272 181.867 64.2205 181.867 62.8175C181.924 62.3261 181.849 61.8284 181.65 61.3756C181.45 60.9228 181.134 60.5313 180.733 60.2414C179.899 59.8453 178.972 59.6863 178.054 59.7817H177.047V66.1942L178.173 66.2101Z" fill="#004070"/>
<path d="M197.783 48.8035L205.02 69.024H199.995L198.409 64.0937H192.861L191.275 69.024H187.875L194.953 48.8035H197.783ZM193.82 61.4859H197.783L195.825 55.1447L193.82 61.4859Z" fill="#004070"/>
<path d="M210.148 48.8035L218.939 61.1847V48.8035H222.284V69.024H219.185L210.426 56.6507V69.024H207.049V48.8035H210.148Z" fill="#004070"/>
<path d="M230.686 48.8035V58.0299L237.527 48.8035H241.387L234.824 57.1104L241.815 69.0002H235.989L230.686 58.9811V69.024H225.756V48.8035H230.686Z" fill="#004070"/>
</g>
<defs>
<clipPath id="clip0_701_4018">
<rect width="260.282" height="88" fill="white" transform="translate(70)"/>
</clipPath>
</defs>
</svg>
